<svg width="16" height="13" viewBox="0 0 16 13" fill="none" xmlns="http://www.w3.org/2000/svg">
<g id="Bowl" clip-path="url(#clip0_1_5520)">
<path id="Vector" d="M4.46143 11.0928V11.7142C4.46143 12.4244 6.04562 13 7.99981 13C9.95401 13 11.5382 12.4244 11.5382 11.7142V11.0928H4.46143Z" fill="#206545"/>
<path id="Vector_2" d="M0 2.42847V4.42872C0 7.35161 1.81806 9.8803 4.46161 11.0927C5.52839 11.582 6.72968 11.8571 8 11.8571C9.27032 11.8571 10.4716 11.582 11.5384 11.0927C12.3268 10.7313 13.0416 10.2525 13.6568 9.68138C15.1045 8.33715 16 6.48013 16 4.42872V2.42847H0Z" fill="#54CA94"/>
<path id="Vector_3" d="M16 2.42847C16 3.7697 12.4184 4.85724 8 4.85724C3.58161 4.85724 0 3.7697 0 2.42847C0 1.08725 3.58161 0 8 0C12.4184 0 16 1.08725 16 2.42847Z" fill="#206545"/>
</g>
<defs>
<clipPath id="clip0_1_5520">
<rect width="16" height="13" fill="white"/>
</clipPath>
</defs>
</svg>
