<svg width="24" height="24" viewBox="0 0 24 24" fill="none" xmlns="http://www.w3.org/2000/svg">
<g id="Clam">
<path id="Vector" d="M14.6345 17.7563C14.6064 17.7703 14.5735 17.7844 14.5454 17.7984C14.0907 18.0188 13.6126 18.1734 13.1251 18.2672C13.1017 18.2719 13.0782 18.2766 13.0548 18.2813C12.9142 18.3094 12.7735 18.3281 12.6329 18.3422C12.6189 18.3422 12.6048 18.3469 12.5954 18.3469C12.4829 18.3609 12.3704 18.3656 12.2579 18.3703C12.1923 18.375 12.122 18.375 12.0564 18.375C12.0423 18.375 12.0329 18.375 12.0189 18.375C11.9954 18.375 11.9767 18.375 11.9532 18.375C11.8876 18.375 11.8173 18.3703 11.7517 18.3703H11.747C11.6345 18.3656 11.522 18.3563 11.4048 18.3469C11.3907 18.3469 11.3767 18.3422 11.3626 18.3422C11.222 18.3281 11.0814 18.3047 10.9407 18.2813C10.9126 18.2766 10.8892 18.2719 10.8657 18.2672C10.8142 18.2578 10.7579 18.2438 10.7064 18.2344C10.2798 18.1359 9.8626 17.9953 9.46416 17.8031C9.42198 17.7844 9.37979 17.7609 9.33291 17.7422C6.42198 16.3359 2.45166 13.9313 4.26573 11.9906C4.2751 11.9813 4.27979 11.9719 4.28916 11.9672C4.29385 11.9625 4.29854 11.9578 4.29854 11.9531C4.29854 11.9531 3.55791 8.79845 5.42823 9.03282C5.4376 9.03282 5.45166 9.03751 5.46573 9.03751C5.47041 9.03751 5.47041 9.03751 5.47041 9.03751C5.47041 9.03751 5.76573 5.52657 7.75323 6.81563C7.76729 6.82501 7.77666 6.8297 7.79073 6.83907C7.79073 6.83907 7.79073 6.83907 7.79541 6.83907C7.79541 6.83907 9.21104 4.2797 10.2704 5.86407L10.2985 5.91095C10.3032 5.92032 10.3126 5.93438 10.3173 5.94376C10.3173 5.94376 10.5892 4.92188 12.0095 4.97345C13.4298 4.92188 13.7017 5.94376 13.7017 5.94376C13.711 5.93438 13.7157 5.92032 13.7204 5.91095C13.7298 5.89688 13.7392 5.87813 13.7485 5.86407C14.8079 4.28438 16.2189 6.83907 16.2189 6.83907C16.2189 6.83907 16.2189 6.83907 16.2235 6.83907C16.2376 6.8297 16.247 6.82032 16.261 6.81563C18.2485 5.52657 18.5439 9.03751 18.5439 9.03751H18.5485C18.5626 9.03751 18.572 9.03282 18.586 9.03282C20.4517 8.79376 19.7157 11.9531 19.7157 11.9531C19.7204 11.9578 19.7251 11.9625 19.7251 11.9672C19.7345 11.9766 19.7392 11.9859 19.7485 11.9906C21.572 13.9359 17.5501 16.35 14.6345 17.7563Z" fill="#38B37B"/>
<path id="Vector_2" d="M12.0187 18.614C11.5733 18.614 11.128 18.5625 10.6921 18.464C10.5983 18.4218 10.4999 18.375 10.4062 18.3328C10.303 18.2812 10.1999 18.2344 10.0968 18.1781L9.79209 18.014C9.63271 17.9297 9.47803 17.8359 9.32334 17.7375C9.28115 17.7094 9.23897 17.6859 9.19678 17.6625C9.00459 17.5312 8.80771 17.4094 8.6249 17.2687C8.53115 17.1984 8.4374 17.1328 8.34834 17.0578L8.07647 16.8422C7.98272 16.7718 7.89834 16.6969 7.80928 16.6219C7.72022 16.5469 7.63115 16.4719 7.54678 16.3922C6.85303 15.7781 6.21553 15.0937 5.64834 14.3578C5.36709 13.9875 5.10928 13.5984 4.86553 13.2C4.63584 12.8109 4.42021 12.4125 4.25146 11.9906C4.26084 11.9812 4.26553 11.9719 4.2749 11.9672C4.36396 12.1687 4.47178 12.3656 4.57959 12.5578C4.69209 12.7594 4.81397 12.9562 4.94053 13.1484C5.19365 13.5328 5.46553 13.9078 5.76084 14.2594C6.34209 14.9719 6.99365 15.6234 7.69678 16.2047C8.04834 16.4906 8.41397 16.7672 8.78897 17.0156L8.92959 17.114L9.07022 17.2078L9.35615 17.3953L9.64678 17.5734C9.74053 17.6343 9.83896 17.6953 9.9374 17.7515L10.228 17.925C10.3265 17.9812 10.4249 18.0328 10.5233 18.0937C10.6218 18.15 10.7202 18.2109 10.8187 18.2578C10.828 18.2625 10.8374 18.2672 10.8468 18.2719C10.9358 18.3187 11.0296 18.3656 11.1187 18.4172L11.2593 18.4922L11.1515 18.4265L10.9827 18.3234C10.964 18.3093 10.9405 18.2953 10.9218 18.2859C10.889 18.2625 10.8515 18.239 10.8187 18.2156C10.603 18.0703 10.3827 17.9203 10.1765 17.7609C10.0733 17.6812 9.96553 17.6015 9.86709 17.5172L9.56709 17.2594C9.51553 17.2172 9.46865 17.175 9.41709 17.1281L9.27178 16.9922L8.98584 16.7203C8.80771 16.5281 8.62021 16.3406 8.45147 16.1344C8.10459 15.7312 7.79053 15.3047 7.49521 14.864C7.19521 14.4234 6.92803 13.964 6.68896 13.4906C6.4499 13.0172 6.23896 12.5297 6.05615 12.0281C5.87803 11.5265 5.72803 11.0156 5.61553 10.4953C5.5124 10.0125 5.43272 9.52029 5.40928 9.0281C5.41865 9.0281 5.43271 9.03279 5.44678 9.03279C5.49365 9.52029 5.59209 10.0031 5.70928 10.4719C5.84053 10.9828 6.00459 11.4844 6.20147 11.9719C6.39365 12.4594 6.61865 12.9328 6.86709 13.3922C7.11553 13.8515 7.39209 14.2969 7.69678 14.7187C8.00146 15.1406 8.3249 15.5484 8.67647 15.9234L8.80771 16.0687C8.8499 16.1156 8.89678 16.1625 8.94365 16.2093L9.21084 16.4906L9.4874 16.7578L9.62334 16.8937C9.67022 16.9406 9.71709 16.9828 9.76397 17.025L10.0499 17.2875C10.1437 17.3765 10.2468 17.4562 10.3452 17.5406L10.4905 17.6672C10.5374 17.7094 10.589 17.7515 10.6405 17.789C10.7437 17.8687 10.8421 17.9484 10.9452 18.0328C10.9968 18.0703 11.0437 18.1172 11.0952 18.1547L11.2499 18.2719L11.3483 18.3468L11.4749 18.4406L11.4421 18.4031L11.3952 18.3515L11.2874 18.2344C11.2358 18.1781 11.1796 18.1219 11.1327 18.0609L10.8421 17.6953L10.7718 17.6062L10.7062 17.5125L10.5702 17.325C10.3827 17.0765 10.2233 16.8047 10.0593 16.5422C9.90459 16.2703 9.7499 15.9984 9.61865 15.7172C9.47803 15.4406 9.35615 15.15 9.22959 14.864L9.05615 14.4281L9.01397 14.3203L8.97647 14.2125L8.89678 13.9922C8.4749 12.8203 8.17959 11.6015 7.9874 10.3687C7.89365 9.74998 7.82803 9.13123 7.78584 8.51248C7.74834 7.94998 7.72959 7.38279 7.74834 6.82029C7.7624 6.82966 7.77178 6.83435 7.78584 6.84373C7.79522 8.02029 7.92647 9.19216 8.1374 10.3406C8.35772 11.5594 8.67647 12.7547 9.12178 13.9031L9.20615 14.1187L9.24834 14.2265L9.29522 14.3343L9.47803 14.7562C9.60928 15.0328 9.74053 15.3094 9.88584 15.5765C10.0218 15.8484 10.1812 16.1109 10.3312 16.3734L10.5702 16.7625C10.6499 16.8937 10.7343 17.0203 10.8187 17.1422L10.9452 17.3343L11.0108 17.4281L11.0765 17.5218L11.3483 17.8875C11.3905 17.9484 11.4421 18.0093 11.489 18.0656L11.6343 18.2437L11.7468 18.3797L11.7562 18.389C11.7562 18.3844 11.7515 18.3843 11.7515 18.3797C11.714 18.2906 11.6812 18.2062 11.653 18.1172C11.5546 17.8359 11.4562 17.55 11.3624 17.2687L11.2218 16.8422C11.1983 16.7718 11.1749 16.6969 11.1562 16.6265L11.0952 16.4109C11.0155 16.1203 10.9358 15.8344 10.8562 15.5437C10.8374 15.4687 10.8187 15.3984 10.7999 15.3234L10.753 15.1031L10.6593 14.6625L10.5702 14.2219L10.5233 14.0015L10.4858 13.7812L10.3405 12.8906C10.1671 11.7 10.0499 10.5047 10.0265 9.29998C10.0265 8.99998 10.0171 8.69998 10.0312 8.39998L10.0452 7.94998C10.0499 7.79998 10.064 7.64998 10.0733 7.49998C10.1108 6.95623 10.1624 6.41248 10.2702 5.87341L10.2983 5.92029C10.2187 6.44529 10.1858 6.97498 10.1671 7.50466C10.1624 7.65466 10.1577 7.80466 10.153 7.94998V8.39998C10.1483 8.69998 10.1671 8.99529 10.1812 9.29529C10.2327 10.4906 10.378 11.6765 10.5796 12.8484L10.7483 13.725L10.7905 13.9453L10.8421 14.1609L10.9452 14.5969L11.0483 15.0328L11.0952 15.2531L11.1515 15.4687C11.2265 15.7547 11.3015 16.0453 11.3718 16.3312L11.4233 16.5469C11.4421 16.6172 11.4562 16.6922 11.4796 16.7625L11.6015 17.189C11.6812 17.475 11.7655 17.7609 11.8405 18.0515C11.8687 18.164 11.9062 18.2765 11.9437 18.389C11.953 18.4172 11.9624 18.45 11.9718 18.4781L11.9952 18.5578L12.014 18.6187L12.0187 18.614Z" fill="#206545"/>
<path id="Vector_3" d="M19.7439 11.9812C19.5752 12.4031 19.3643 12.7968 19.1346 13.1859C18.8955 13.5843 18.633 13.9734 18.3518 14.3437C17.7893 15.0844 17.1518 15.764 16.4533 16.3781C16.3689 16.4578 16.2799 16.5328 16.1908 16.6078C16.1018 16.6828 16.0174 16.7578 15.9236 16.8281L15.6518 17.0437C15.558 17.114 15.4643 17.1844 15.3752 17.2547C15.1924 17.3953 14.9955 17.5219 14.8033 17.6484C14.7471 17.6812 14.6908 17.7187 14.6346 17.7515C14.4939 17.8359 14.3533 17.925 14.208 18L13.9033 18.164C13.8002 18.2203 13.6971 18.2672 13.5939 18.3187C13.5002 18.3656 13.4018 18.4078 13.308 18.45C12.8861 18.5484 12.4549 18.6 12.0189 18.6C12.0049 18.6 11.9955 18.6 11.9814 18.6L12.0002 18.539L12.0236 18.4547C12.033 18.4265 12.0424 18.3984 12.0518 18.3703C12.0893 18.2578 12.1268 18.1406 12.1549 18.0281C12.2346 17.7422 12.3143 17.4515 12.3939 17.1656L12.5158 16.739C12.5393 16.6687 12.5533 16.5937 12.5721 16.5234L12.6236 16.3078C12.6939 16.0219 12.7689 15.7312 12.8439 15.4453L12.9002 15.2297L12.9471 15.0094L13.0502 14.5734L13.1533 14.1375L13.2049 13.9219L13.2471 13.7015L13.4158 12.825C13.6174 11.6484 13.7627 10.4625 13.8143 9.27185C13.8236 8.97185 13.8471 8.67654 13.8424 8.37654V7.92654C13.8424 7.77654 13.833 7.62654 13.8283 7.47654C13.8096 6.94685 13.7721 6.41716 13.6971 5.89685C13.7064 5.88279 13.7158 5.86404 13.7252 5.84998C13.8283 6.38435 13.8846 6.9281 13.9174 7.47185C13.9268 7.62185 13.9361 7.77185 13.9455 7.92185L13.9596 8.37185C13.9736 8.67185 13.9643 8.97185 13.9643 9.27185C13.9408 10.4719 13.8236 11.6719 13.6502 12.8625L13.5049 13.7531L13.4674 13.9734L13.4205 14.1937L13.3314 14.6344L13.2377 15.075L13.1908 15.2953C13.1721 15.3703 13.1533 15.4406 13.1346 15.5156C13.0596 15.8062 12.9752 16.0969 12.8955 16.3828L12.8346 16.5984C12.8158 16.6687 12.7924 16.7437 12.7689 16.814L12.6283 17.2406C12.5299 17.5265 12.4361 17.8078 12.3377 18.089C12.3096 18.1781 12.2721 18.2672 12.2346 18.3562V18.3609L12.2393 18.3562L12.3564 18.2109L12.5018 18.0328C12.5486 17.9719 12.6002 17.9156 12.6424 17.8547L12.9143 17.489L12.9799 17.3953L13.0455 17.3015L13.1721 17.1094C13.2564 16.9828 13.3455 16.8609 13.4205 16.7297L13.6596 16.3406C13.8096 16.0734 13.9689 15.8156 14.1049 15.5437C14.2549 15.2765 14.3814 14.9953 14.5127 14.7234L14.6955 14.3015L14.7424 14.1984L14.7846 14.0906L14.8689 13.875C15.3143 12.7312 15.633 11.5312 15.8533 10.3125C16.0643 9.16404 16.1908 7.99216 16.2049 6.82029C16.2189 6.81091 16.2283 6.80154 16.2424 6.79685C16.2611 7.35935 16.2424 7.92185 16.2049 8.48435C16.1627 9.10779 16.0971 9.72654 16.0033 10.3406C15.8111 11.5734 15.5158 12.7922 15.0939 13.964L15.0143 14.1844L14.9768 14.2922L14.9346 14.4L14.7611 14.8359C14.6346 15.1219 14.5127 15.4078 14.3721 15.689C14.2408 15.9703 14.0814 16.2422 13.9314 16.514C13.7627 16.7765 13.6033 17.0484 13.4205 17.2969L13.2846 17.4844L13.2189 17.5781L13.1486 17.6672L12.858 18.0328C12.8111 18.0937 12.7549 18.15 12.7033 18.2062L12.5908 18.3281L12.5486 18.375L12.5158 18.4125L12.633 18.3234L12.7408 18.2437L12.8955 18.1265C12.9471 18.089 12.9986 18.0469 13.0455 18.0047C13.1439 17.925 13.2471 17.8406 13.3502 17.7609C13.4018 17.7234 13.4486 17.6812 13.5002 17.639L13.6455 17.5125C13.7439 17.4281 13.8424 17.3484 13.9408 17.2594L14.2268 16.9969C14.2736 16.9547 14.3205 16.9125 14.3674 16.8656L14.5033 16.7297L14.7799 16.4625L15.0471 16.1812C15.0939 16.1344 15.1361 16.0875 15.183 16.0406L15.3143 15.8953C15.6705 15.5203 15.9893 15.1125 16.2939 14.6906C16.5986 14.2687 16.8752 13.8234 17.1236 13.364C17.3721 12.9047 17.5971 12.4312 17.7893 11.9437C17.9861 11.4562 18.1502 10.9547 18.2814 10.4437C18.3986 9.97498 18.4971 9.49216 18.5439 9.00935C18.558 9.00935 18.5674 9.00466 18.5814 9.00466C18.558 9.49685 18.4783 9.98435 18.3752 10.4672C18.2627 10.9875 18.1127 11.4984 17.9346 12C17.7518 12.5015 17.5408 12.989 17.3018 13.4625C17.0627 13.9359 16.7955 14.3953 16.4955 14.8359C16.2002 15.2765 15.8814 15.7031 15.5393 16.1062C15.3705 16.3125 15.183 16.5 15.0049 16.6922L14.7189 16.964L14.5736 17.1C14.5268 17.1422 14.4752 17.1844 14.4236 17.2312L14.1236 17.489C14.0205 17.5734 13.9174 17.6531 13.8143 17.7328C13.608 17.8968 13.3924 18.0422 13.1721 18.1875C13.1346 18.2156 13.0971 18.239 13.0549 18.2672C13.0408 18.2765 13.0221 18.2859 13.008 18.3L12.8393 18.4031L12.7314 18.4687L12.8721 18.3937C12.9564 18.3468 13.0408 18.3047 13.1252 18.2578C13.1393 18.2484 13.158 18.2437 13.1721 18.2344C13.2705 18.1828 13.3689 18.1219 13.4674 18.0703C13.5658 18.014 13.6643 17.9625 13.7627 17.9015L14.0533 17.7281C14.1518 17.6719 14.2455 17.6109 14.3439 17.55L14.6346 17.3719L14.9205 17.1844L15.0611 17.0906L15.2018 16.9922C15.5814 16.7437 15.9424 16.4672 16.2939 16.1812C16.9971 15.6 17.6486 14.9484 18.2299 14.2359C18.5205 13.8797 18.7971 13.5094 19.0502 13.125C19.1768 12.9328 19.2986 12.7359 19.4111 12.5344C19.5189 12.3422 19.6268 12.15 19.7158 11.9484C19.7299 11.9672 19.7346 11.9719 19.7439 11.9812Z" fill="#206545"/>
<path id="Vector_4" opacity="0.2" d="M15.4077 17.3719C15.1452 17.5079 14.8827 17.6344 14.6343 17.7563C14.6062 17.7704 14.5733 17.7844 14.5452 17.7985C14.0905 18.0188 13.6124 18.1735 13.1249 18.2672C13.1015 18.2719 13.078 18.2766 13.0546 18.2813C12.914 18.3094 12.7733 18.3282 12.6327 18.3422C12.6187 18.3422 12.6046 18.3469 12.5952 18.3469C12.4827 18.361 12.3702 18.3657 12.2577 18.3704C12.1921 18.3751 12.1218 18.3751 12.0562 18.3751C12.0421 18.3751 12.0327 18.3751 12.0187 18.3751C12.0093 18.3751 11.9952 18.3751 11.9858 18.3751V4.96881C11.9905 4.96881 11.9999 4.96881 12.0046 4.96881C13.4249 4.91724 13.6968 5.93912 13.6968 5.93912C13.7062 5.92974 13.7108 5.91568 13.7155 5.90631C13.7249 5.89224 13.7343 5.87349 13.7437 5.85943C14.803 4.27974 16.214 6.83443 16.214 6.83443C16.214 6.83443 16.214 6.83443 16.2187 6.83443C16.2327 6.82506 16.2421 6.81568 16.2562 6.81099C18.2437 5.52193 18.539 9.03287 18.539 9.03287H18.5437C18.5577 9.03287 18.5671 9.02818 18.5812 9.02818C20.4468 8.78912 19.7108 11.9485 19.7108 11.9485C19.7155 11.9532 19.7202 11.9579 19.7202 11.9626C19.7296 11.9719 19.7343 11.9813 19.7437 11.986C21.4124 13.7672 18.1968 15.9376 15.4077 17.3719Z" fill="#133E2B"/>
<path id="Vector_5" d="M15.2389 17.7093C14.7701 18.089 14.1232 18.4968 13.2607 18.8109C12.4498 19.1062 11.5545 19.1062 10.7389 18.8109C9.87635 18.4968 9.22947 18.089 8.76072 17.7093C8.39979 17.4187 8.65291 16.8374 9.11229 16.9031C10.5279 17.1046 11.9998 17.1046 11.9998 17.1046C11.9998 17.1046 13.4717 17.1046 14.8873 16.9031C15.3467 16.8374 15.5998 17.4187 15.2389 17.7093Z" fill="#206545"/>
<path id="Vector_6" opacity="0.2" d="M15.408 17.3719C15.4033 17.4938 15.3518 17.6157 15.2393 17.7094C14.7705 18.0891 14.1236 18.4969 13.2611 18.811C12.8486 18.961 12.4127 19.036 11.9814 19.0313V17.1047C11.9955 17.1047 12.0002 17.1047 12.0002 17.1047C12.0002 17.1047 13.4721 17.1047 14.8877 16.8985C15.1971 16.8563 15.4174 17.1141 15.408 17.3719Z" fill="#133E2B"/>
</g>
</svg>
