<svg width="24" height="24" viewBox="0 0 24 24" fill="none" xmlns="http://www.w3.org/2000/svg">
<g id="send">
<path id="Vector" d="M3.69831 20.7844C4.08268 20.754 4.48815 20.5243 4.83971 20.3672C5.42799 20.1024 6.01628 19.8399 6.60456 19.5774C7.4694 19.1907 8.3319 18.804 9.19674 18.4149L12.2272 17.0579C13.2514 16.5985 14.278 16.1391 15.3022 15.6797C16.2139 15.2719 17.1256 14.8641 18.035 14.454C18.696 14.1563 19.3592 13.861 20.0202 13.5633C20.2991 13.4391 20.578 13.3126 20.8592 13.1883C21.1053 13.0782 21.2999 12.9212 21.4522 12.6962C21.7827 12.211 21.6983 11.5547 21.328 11.1212C21.1733 10.9407 20.9741 10.8422 20.7631 10.7485C20.3671 10.5704 19.971 10.3946 19.5749 10.2165C18.8319 9.88365 18.0913 9.55084 17.3483 9.21803C16.3921 8.78912 15.4358 8.36256 14.4796 7.93365C13.446 7.46959 12.4124 7.00787 11.3764 6.54381C10.3921 6.10319 9.40768 5.66256 8.42331 5.21959C7.6194 4.85865 6.81549 4.50006 6.01159 4.13912C5.51706 3.91881 5.02487 3.69615 4.53034 3.47584C4.44128 3.436 4.35456 3.39615 4.26549 3.35865C3.97721 3.22975 3.70299 3.1735 3.38659 3.22506C2.89674 3.30709 2.46315 3.72897 2.3694 4.21647C2.31784 4.486 2.34362 4.73678 2.43737 4.99225C2.46081 5.06022 2.48659 5.12584 2.51003 5.19381C2.62253 5.50553 2.73737 5.81725 2.84987 6.12897C3.21549 7.1274 3.57878 8.12819 3.9444 9.12662C4.23503 9.92584 4.52799 10.7251 4.82096 11.5243H12.3725C12.635 11.5243 12.8296 11.7399 12.8413 11.993C12.853 12.2462 12.6186 12.4618 12.3725 12.4618H12.3585C12.0186 12.4712 11.6764 12.4618 11.3366 12.4618H4.81862C4.78346 12.5602 4.74831 12.6587 4.71315 12.7547C4.46471 13.4368 4.21628 14.1165 3.96784 14.7985C3.68659 15.5672 3.40768 16.3337 3.12643 17.1024C2.92721 17.6485 2.72799 18.1946 2.52878 18.7383C2.49362 18.8321 2.46081 18.9258 2.42565 19.0196C2.20299 19.629 2.45612 20.3508 3.05143 20.6415C3.22487 20.7258 3.40065 20.7727 3.59049 20.7821C3.6069 20.7844 3.62331 20.7844 3.64206 20.7844C3.65846 20.7891 3.67956 20.7868 3.69831 20.7844Z" fill="#C6CDCA"/>
</g>
</svg>
