<svg width="40" height="40" viewBox="0 0 40 40" fill="none" xmlns="http://www.w3.org/2000/svg">
<g id="Search" clip-path="url(#clip0_1_6854)">
<path id="Vector" d="M40 36.8182C40 38.5455 38.5455 40 36.8182 40C35.9091 40 35.0909 39.6364 34.4545 39L24.2727 27.9091C23.9091 27.5455 23.9091 27 24.2727 26.6364L26.6364 24.2727C27 23.9091 27.5455 23.9091 27.9091 24.2727L39 34.5455C39.6364 35.0909 40 36 40 36.8182Z" fill="#FE9255"/>
<path id="Vector_2" d="M21.8411 23.641L23.6409 21.8411L26.3409 24.5409L24.541 26.3408L21.8411 23.641Z" fill="#A2E2C5"/>
<path id="Vector_3" d="M24.9999 25.0001L25.4545 25.4546L26.3636 24.5455L23.6363 21.8182L21.8181 23.6364L23.1818 25.0001C23.7272 24.4546 24.4545 24.4546 24.9999 25.0001Z" fill="#7BD6AC"/>
<path id="Vector_4" d="M13.6364 0C6.09091 0 0 6.09091 0 13.6364C0 21.1818 6.09091 27.2727 13.6364 27.2727C21.1818 27.2727 27.2727 21.1818 27.2727 13.6364C27.2727 6.09091 21.1818 0 13.6364 0ZM13.6364 24.5455C7.63636 24.5455 2.72727 19.6364 2.72727 13.6364C2.72727 7.63636 7.63636 2.72727 13.6364 2.72727C19.6364 2.72727 24.5455 7.63636 24.5455 13.6364C24.5455 19.6364 19.6364 24.5455 13.6364 24.5455Z" fill="#A2E2C5"/>
<path id="Vector_5" d="M13.6364 24.5455C19.6613 24.5455 24.5455 19.6613 24.5455 13.6364C24.5455 7.61146 19.6613 2.72729 13.6364 2.72729C7.61146 2.72729 2.72729 7.61146 2.72729 13.6364C2.72729 19.6613 7.61146 24.5455 13.6364 24.5455Z" fill="#38B37B"/>
<path id="Vector_6" d="M8.27282 14.9091C8.72737 11.4545 11.4546 8.72725 14.9092 8.27271H15.0001C16.5456 8.09089 16.6365 5.90907 15.1819 5.63634C14.2728 5.45452 13.3637 5.45452 12.4546 5.54543C8.90919 6.09089 6.09101 8.90907 5.63646 12.3636C5.45464 13.2727 5.54555 14.2727 5.72737 15.0909C6.0001 16.6363 8.18191 16.4545 8.36373 14.9091C8.27282 15 8.27282 14.9091 8.27282 14.9091Z" fill="#54CA94"/>
<path id="Vector_7" d="M3.63639 14.5455C3.63639 8.54548 8.54548 3.63639 14.5455 3.63639C17.3637 3.63639 19.8182 4.72729 21.8182 6.36366C19.8182 4.09093 16.9091 2.72729 13.6364 2.72729C7.63639 2.72729 2.72729 7.63639 2.72729 13.6364C2.72729 16.9091 4.18184 19.8182 6.36366 21.8182C4.72729 19.8182 3.63639 17.3637 3.63639 14.5455Z" fill="#2C8C60"/>
<path id="Vector_8" d="M13.6365 27.2727C21.1819 27.2727 27.2728 21.1818 27.2728 13.6364C26.8183 13.6364 26.3637 14 26.3637 14.5454C26.1819 17.6364 24.8183 20.4545 22.7274 22.5454C20.6365 24.7273 17.7274 26.0909 14.5456 26.3636C14.0001 26.3636 13.6365 26.8182 13.6365 27.2727Z" fill="#54CA94"/>
<path id="Vector_9" d="M13.6364 0C6.09091 0 0 6.09091 0 13.6364C0.454545 13.6364 0.909091 13.2727 0.909091 12.7273C1.09091 9.72727 2.36364 7 4.27273 5C6.45455 2.72727 9.45455 1.18182 12.7273 0.909091C13.2727 0.909091 13.6364 0.454545 13.6364 0Z" fill="#54CA94"/>
<path id="Vector_10" d="M38.9091 34.4546L38.3637 34C38.8182 34.5455 39.091 35.2727 39.091 36C39.091 37.1818 37.6364 37.6364 36.8182 36.8182L27.2728 27.2727C26.7273 26.7273 25.9091 26.7273 25.3637 27.2727L24.4546 28.1818L34.3637 38.8182C34.9091 39.3636 35.6364 39.8182 36.3637 39.9091C37.3637 40 38.3637 39.6364 39 39C39.6364 38.3636 40 37.3636 39.9091 36.3636C39.9091 35.6364 39.4546 35 38.9091 34.4546Z" fill="#FF792D"/>
<path id="Vector_11" d="M29.5454 28.1818C29.4545 28.1818 29.2727 28.1818 29.1818 28.0909L26.9091 25.8181C26.7273 25.6363 26.7273 25.3636 26.9091 25.1818C27.0909 25 27.3636 25 27.5454 25.1818L29.8182 27.4545C30 27.6363 30 27.909 29.8182 28.0909C29.8182 28.1818 29.6363 28.1818 29.5454 28.1818Z" fill="#FE6813"/>
</g>
<defs>
<clipPath id="clip0_1_6854">
<rect width="40" height="40" fill="white"/>
</clipPath>
</defs>
</svg>
