<svg width="16" height="18" viewBox="0 0 16 18" fill="none" xmlns="http://www.w3.org/2000/svg">
<g id="taxi" clip-path="url(#clip0_1_5540)">
<g id="Group">
<path id="Vector" d="M14.317 13.2862C14.2187 13.2323 14.1081 13.204 13.9956 13.204C13.883 13.204 13.7724 13.2323 13.6741 13.2862C13.5135 13.3807 13.3298 13.4303 13.1427 13.4297H11.4284C11.2586 13.4319 11.0964 13.4992 10.9763 13.6174C10.8562 13.7356 10.7878 13.8953 10.7856 14.0625V15.3365C10.7856 15.84 10.9887 16.3229 11.3504 16.6789C11.7121 17.035 12.2026 17.235 12.7141 17.235C13.2256 17.235 13.7162 17.035 14.0778 16.6789C14.4395 16.3229 14.6427 15.84 14.6427 15.3365V13.8347C14.6442 13.7228 14.6146 13.6126 14.5572 13.5159C14.4998 13.4193 14.4168 13.3399 14.317 13.2862ZM4.57127 13.4297H2.85698C2.66989 13.4303 2.48615 13.3807 2.32556 13.2862C2.22729 13.2323 2.11664 13.204 2.00413 13.204C1.89161 13.204 1.78097 13.2323 1.6827 13.2862C1.58291 13.3399 1.49986 13.4193 1.44247 13.5159C1.38508 13.6126 1.35553 13.7228 1.35698 13.8347V15.3365C1.35698 15.84 1.56017 16.3229 1.92185 16.6789C2.28353 17.035 2.77407 17.235 3.28556 17.235C3.79705 17.235 4.28759 17.035 4.64926 16.6789C5.01094 16.3229 5.21413 15.84 5.21413 15.3365V14.0625C5.21191 13.8953 5.14347 13.7356 5.02338 13.6174C4.9033 13.4992 4.74108 13.4319 4.57127 13.4297Z" fill="#133E2B"/>
<path id="Vector_2" d="M10.5716 0.773438H5.42871C5.03158 0.775652 4.65136 0.93193 4.37054 1.20836C4.08972 1.48479 3.93096 1.85907 3.92871 2.25V3.9375C3.93093 4.10465 3.99937 4.26434 4.11945 4.38255C4.23954 4.50075 4.40176 4.56813 4.57157 4.57031H11.4287C11.5985 4.56813 11.7607 4.50075 11.8808 4.38255C12.0009 4.26434 12.0693 4.10465 12.0716 3.9375V2.25C12.0693 1.85907 11.9106 1.48479 11.6297 1.20836C11.3489 0.93193 10.9687 0.775652 10.5716 0.773438Z" fill="#54CA94"/>
<path id="Vector_3" d="M2.22264 8.90723C2.05362 8.90724 1.89139 8.84173 1.77108 8.72488C1.65076 8.60802 1.58204 8.44922 1.57978 8.28285C1.57562 8.23795 1.57562 8.19276 1.57978 8.14785V8.02973L1.99978 5.30442C2.07677 4.74829 2.35665 4.23872 2.78721 3.87078C3.21778 3.50283 3.76962 3.30164 4.33978 3.30473H11.6598C12.2287 3.30136 12.7794 3.50137 13.2098 3.8676C13.6402 4.23383 13.9209 4.74139 13.9998 5.29598L14.4026 8.15629C14.4289 8.26766 14.4236 8.38399 14.3874 8.49261C14.3511 8.60122 14.2852 8.69794 14.1969 8.77223C14.1086 8.84685 14.0014 8.89647 13.8866 8.91579C13.7719 8.9351 13.654 8.9234 13.5455 8.88192C13.4173 8.8317 13.2806 8.80593 13.1426 8.80598H2.85693C2.73709 8.80429 2.61797 8.82431 2.5055 8.86504C2.41587 8.90072 2.31898 8.91517 2.22264 8.90723Z" fill="#2C8C60"/>
<path id="Vector_4" d="M2.98571 7.52344H13.0143L12.7229 5.47313C12.6824 5.22337 12.5535 4.99575 12.359 4.83053C12.1645 4.66531 11.9169 4.57313 11.66 4.57031H4.34C4.08184 4.57346 3.83321 4.66683 3.63852 4.83375C3.44383 5.00067 3.31575 5.23027 3.27714 5.48156L2.98571 7.52344ZM14.8571 8.78906H13.1429C12.9724 8.78906 12.8088 8.72239 12.6883 8.60372C12.5677 8.48504 12.5 8.32408 12.5 8.15625C12.5 7.98842 12.5677 7.82746 12.6883 7.70878C12.8088 7.59011 12.9724 7.52344 13.1429 7.52344H14.8571C15.0276 7.52344 15.1912 7.59011 15.3117 7.70878C15.4323 7.82746 15.5 7.98842 15.5 8.15625C15.5 8.32408 15.4323 8.48504 15.3117 8.60372C15.1912 8.72239 15.0276 8.78906 14.8571 8.78906ZM2.85714 8.78906H1.14286C0.972361 8.78906 0.808848 8.72239 0.688288 8.60372C0.567729 8.48504 0.5 8.32408 0.5 8.15625C0.5 7.98842 0.567729 7.82746 0.688288 7.70878C0.808848 7.59011 0.972361 7.52344 1.14286 7.52344H2.85714C3.02764 7.52344 3.19115 7.59011 3.31171 7.70878C3.43227 7.82746 3.5 7.98842 3.5 8.15625C3.5 8.32408 3.43227 8.48504 3.31171 8.60372C3.19115 8.72239 3.02764 8.78906 2.85714 8.78906Z" fill="#54CA94"/>
<path id="Vector_5" d="M13.1429 7.52344H2.85714C1.55533 7.52344 0.5 8.56228 0.5 9.84375V12.375C0.5 13.6565 1.55533 14.6953 2.85714 14.6953H13.1429C14.4447 14.6953 15.5 13.6565 15.5 12.375V9.84375C15.5 8.56228 14.4447 7.52344 13.1429 7.52344Z" fill="#2C8C60"/>
<path id="Vector_6" d="M12.2856 11.7422H10.5713C10.4008 11.7422 10.2373 11.6755 10.1167 11.5568C9.99616 11.4382 9.92843 11.2772 9.92843 11.1094C9.92843 10.9415 9.99616 10.7806 10.1167 10.6619C10.2373 10.5432 10.4008 10.4766 10.5713 10.4766H12.2856C12.4561 10.4766 12.6196 10.5432 12.7401 10.6619C12.8607 10.7806 12.9284 10.9415 12.9284 11.1094C12.9284 11.2772 12.8607 11.4382 12.7401 11.5568C12.6196 11.6755 12.4561 11.7422 12.2856 11.7422ZM5.42843 11.7422H3.71415C3.54365 11.7422 3.38014 11.6755 3.25958 11.5568C3.13902 11.4382 3.07129 11.2772 3.07129 11.1094C3.07129 10.9415 3.13902 10.7806 3.25958 10.6619C3.38014 10.5432 3.54365 10.4766 3.71415 10.4766H5.42843C5.59893 10.4766 5.76244 10.5432 5.883 10.6619C6.00356 10.7806 6.07129 10.9415 6.07129 11.1094C6.07129 11.2772 6.00356 11.4382 5.883 11.5568C5.76244 11.6755 5.59893 11.7422 5.42843 11.7422Z" fill="#EFFAF5"/>
</g>
</g>
<defs>
<clipPath id="clip0_1_5540">
<rect width="16" height="18" fill="white"/>
</clipPath>
</defs>
</svg>
