<svg width="14" height="14" viewBox="0 0 14 14" fill="none" xmlns="http://www.w3.org/2000/svg">
<g id="Trash" clip-path="url(#clip0_1_5555)">
<path id="Vector" d="M8.89583 2.625H5.10417C4.98813 2.625 4.87685 2.57891 4.79481 2.49686C4.71276 2.41481 4.66667 2.30353 4.66667 2.1875V1.02083C4.66667 0.457917 5.12458 0 5.6875 0H8.3125C8.87542 0 9.33333 0.457917 9.33333 1.02083V2.1875C9.33333 2.30353 9.28724 2.41481 9.20519 2.49686C9.12315 2.57891 9.01187 2.625 8.89583 2.625ZM10.6458 14H3.35417C2.92881 13.9997 2.52096 13.8306 2.22019 13.5298C1.91942 13.229 1.75031 12.8212 1.75 12.3958V4.52083C1.75 4.4048 1.79609 4.29352 1.87814 4.21147C1.96019 4.12943 2.07147 4.08333 2.1875 4.08333H11.8125C11.9285 4.08333 12.0398 4.12943 12.1219 4.21147C12.2039 4.29352 12.25 4.4048 12.25 4.52083V12.3958C12.2497 12.8212 12.0806 13.229 11.7798 13.5298C11.479 13.8306 11.0712 13.9997 10.6458 14Z" fill="#C6CDCA"/>
<path id="Vector_2" d="M12.9793 4.95833H1.021C0.904964 4.95833 0.793684 4.91224 0.711637 4.83019C0.62959 4.74815 0.583496 4.63687 0.583496 4.52083V3.35417C0.583805 2.92881 0.752914 2.52096 1.05369 2.22019C1.35446 1.91942 1.76231 1.75031 2.18766 1.75H11.8127C12.238 1.75031 12.6459 1.91942 12.9466 2.22019C13.2474 2.52096 13.4165 2.92881 13.4168 3.35417V4.52083C13.4168 4.63687 13.3707 4.74815 13.2887 4.83019C13.2066 4.91224 13.0954 4.95833 12.9793 4.95833Z" fill="#F05542"/>
<path id="Vector_3" d="M4.52083 11.8125C4.36612 11.8125 4.21775 11.7511 4.10835 11.6417C3.99896 11.5323 3.9375 11.3839 3.9375 11.2292V6.85421C3.9375 6.6995 3.99896 6.55112 4.10835 6.44173C4.21775 6.33233 4.36612 6.27087 4.52083 6.27087C4.67554 6.27087 4.82392 6.33233 4.93331 6.44173C5.04271 6.55112 5.10417 6.6995 5.10417 6.85421V11.2292C5.10417 11.3839 5.04271 11.5323 4.93331 11.6417C4.82392 11.7511 4.67554 11.8125 4.52083 11.8125ZM7 11.8125C6.84529 11.8125 6.69692 11.7511 6.58752 11.6417C6.47812 11.5323 6.41667 11.3839 6.41667 11.2292V6.85421C6.41667 6.6995 6.47812 6.55112 6.58752 6.44173C6.69692 6.33233 6.84529 6.27087 7 6.27087C7.15471 6.27087 7.30308 6.33233 7.41248 6.44173C7.52187 6.55112 7.58333 6.6995 7.58333 6.85421V11.2292C7.58333 11.3839 7.52187 11.5323 7.41248 11.6417C7.30308 11.7511 7.15471 11.8125 7 11.8125ZM9.47917 11.8125C9.32446 11.8125 9.17608 11.7511 9.06669 11.6417C8.95729 11.5323 8.89583 11.3839 8.89583 11.2292V6.85421C8.89583 6.6995 8.95729 6.55112 9.06669 6.44173C9.17608 6.33233 9.32446 6.27087 9.47917 6.27087C9.63388 6.27087 9.78225 6.33233 9.89165 6.44173C10.001 6.55112 10.0625 6.6995 10.0625 6.85421V11.2292C10.0625 11.3839 10.001 11.5323 9.89165 11.6417C9.78225 11.7511 9.63388 11.8125 9.47917 11.8125Z" fill="white"/>
</g>
<defs>
<clipPath id="clip0_1_5555">
<rect width="14" height="14" fill="white"/>
</clipPath>
</defs>
</svg>
