<svg width="49" height="16" viewBox="0 0 49 16" fill="none" xmlns="http://www.w3.org/2000/svg">
<g id="Vector">
<path d="M6.2508 3.91814C6.2508 5.64928 4.85151 7.05265 3.1254 7.05265C1.39929 7.05265 0 5.64928 0 3.91814C0 2.18699 1.39929 0.783622 3.1254 0.783622C4.85151 0.783622 6.2508 2.18699 6.2508 3.91814Z" fill="#38B37B"/>
<path d="M35.1609 3.13451C35.1609 4.86566 33.7616 6.26903 32.0355 6.26903C30.3094 6.26903 28.9101 4.86566 28.9101 3.13451C28.9101 1.40337 30.3094 0 32.0355 0C33.7616 0 35.1609 1.40337 35.1609 3.13451Z" fill="#38B37B"/>
<path d="M9.62103 2.21643C10.8416 0.992331 12.8205 0.992332 14.041 2.21644C15.2616 3.44054 15.2616 5.4252 14.041 6.64931L7.41103 13.2986C6.19049 14.5227 4.21159 14.5227 2.99105 13.2986C1.7705 12.0745 1.7705 10.0898 2.99105 8.86574L9.62103 2.21643Z" fill="#38B37B"/>
<path d="M18.9977 2.21643C20.2183 0.992331 22.1971 0.992332 23.4177 2.21644C24.6382 3.44054 24.6382 5.4252 23.4177 6.64931L16.7877 13.2986C15.5672 14.5227 13.5883 14.5227 12.3677 13.2986C11.1472 12.0745 11.1472 10.0898 12.3677 8.86574L18.9977 2.21643Z" fill="#38B37B"/>
<path d="M25.2485 6.13454C26.469 4.91044 28.4479 4.91044 29.6684 6.13454C30.889 7.35865 30.889 9.34331 29.6684 10.5674L25.2485 15.0003C24.0279 16.2244 22.049 16.2244 20.8285 15.0003C19.6079 13.7762 19.6079 11.7915 20.8285 10.5674L25.2485 6.13454Z" fill="#38B37B"/>
<path d="M36.4651 3.42843C36.4651 2.16607 37.4855 1.14272 38.7442 1.14272H46.7209C47.9796 1.14272 49 2.16607 49 3.42843C49 4.6908 47.9796 5.71415 46.7209 5.71415H38.7442C37.4855 5.71415 36.4651 4.6908 36.4651 3.42843Z" fill="#38B37B"/>
<path d="M30 13.5C30 11.922 32.0429 10.2857 33.6163 10.2857H45.0116C46.585 10.2857 47.8605 11.5649 47.8605 13.1429C47.8605 14.7208 46.585 16 45.0116 16H33.6163C32.0429 16 30 15.078 30 13.5Z" fill="#38B37B"/>
<path d="M30.5 13.5C29.9973 12.5495 31.0979 11.3393 32 10.7569L45.5524 2.0864C47.5783 1.01283 49.6915 2.29986 48.7546 4.38838C48.6097 4.71158 48.3711 4.99828 48.1416 5.26808C47.8132 5.65406 47.4383 5.98097 47.0098 6.25161L34.0109 14.4629C32.9949 15.1047 31.0626 14.5638 30.5 13.5Z" fill="#38B37B"/>
</g>
</svg>
