<svg width="18" height="18" viewBox="0 0 18 18" fill="none" xmlns="http://www.w3.org/2000/svg">
<g id="Link">
<path id="Vector" d="M7.5 12.75H5.25C4.25544 12.75 3.30161 12.3549 2.59835 11.6517C1.89509 10.9484 1.5 9.99456 1.5 9C1.5 8.00544 1.89509 7.05161 2.59835 6.34835C3.30161 5.64509 4.25544 5.25 5.25 5.25H7.5C7.69891 5.25 7.88968 5.32902 8.03033 5.46967C8.17098 5.61032 8.25 5.80109 8.25 6C8.25 6.19891 8.17098 6.38968 8.03033 6.53033C7.88968 6.67098 7.69891 6.75 7.5 6.75H5.25C4.65326 6.75 4.08097 6.98705 3.65901 7.40901C3.23705 7.83097 3 8.40326 3 9C3 9.59674 3.23705 10.169 3.65901 10.591C4.08097 11.0129 4.65326 11.25 5.25 11.25H7.5C7.69891 11.25 7.88968 11.329 8.03033 11.4697C8.17098 11.6103 8.25 11.8011 8.25 12C8.25 12.1989 8.17098 12.3897 8.03033 12.5303C7.88968 12.671 7.69891 12.75 7.5 12.75ZM12.75 12.75H10.5C10.3011 12.75 10.1103 12.671 9.96967 12.5303C9.82902 12.3897 9.75 12.1989 9.75 12C9.75 11.8011 9.82902 11.6103 9.96967 11.4697C10.1103 11.329 10.3011 11.25 10.5 11.25H12.75C13.3467 11.25 13.919 11.0129 14.341 10.591C14.7629 10.169 15 9.59674 15 9C15 8.40326 14.7629 7.83097 14.341 7.40901C13.919 6.98705 13.3467 6.75 12.75 6.75H10.5C10.3011 6.75 10.1103 6.67098 9.96967 6.53033C9.82902 6.38968 9.75 6.19891 9.75 6C9.75 5.80109 9.82902 5.61032 9.96967 5.46967C10.1103 5.32902 10.3011 5.25 10.5 5.25H12.75C13.7446 5.25 14.6984 5.64509 15.4017 6.34835C16.1049 7.05161 16.5 8.00544 16.5 9C16.5 9.99456 16.1049 10.9484 15.4017 11.6517C14.6984 12.3549 13.7446 12.75 12.75 12.75Z" fill="#54CA94"/>
<path id="Vector_2" d="M11.25 9.75H6.75C6.55109 9.75 6.36032 9.67098 6.21967 9.53033C6.07902 9.38968 6 9.19891 6 9C6 8.80109 6.07902 8.61032 6.21967 8.46967C6.36032 8.32902 6.55109 8.25 6.75 8.25H11.25C11.4489 8.25 11.6397 8.32902 11.7803 8.46967C11.921 8.61032 12 8.80109 12 9C12 9.19891 11.921 9.38968 11.7803 9.53033C11.6397 9.67098 11.4489 9.75 11.25 9.75Z" fill="#38B37B"/>
</g>
</svg>
