<svg width="16" height="11" viewBox="0 0 16 11" fill="none" xmlns="http://www.w3.org/2000/svg">
<g id="Tape" clip-path="url(#clip0_1_5528)">
<path id="Vector" d="M15.5001 0H14.1958C13.9197 0 13.6958 0.231652 13.6958 0.517641C13.6958 0.803517 13.9197 1.03528 14.1958 1.03528V9.9647C13.9197 9.9647 13.6958 10.1963 13.6958 10.4823C13.6958 10.7682 13.9197 11 14.1958 11H15.5001C15.7763 11 16.0001 10.7682 16.0001 10.4823V0.517641C16.0001 0.231652 15.7763 0 15.5001 0Z" fill="#2C8C60"/>
<path id="Vector_2" d="M14.1957 2.12683H0.499995C0.223886 2.12683 0 2.3586 0 2.64447V10.4824C0 10.7682 0.223886 11 0.499995 11H14.1957C14.4718 11 14.6957 10.7682 14.6957 10.4824V2.64447C14.6957 2.3586 14.4718 2.12683 14.1957 2.12683Z" fill="#38B37B"/>
<path id="Vector_3" d="M14.1957 0H0.499995C0.223886 0 0 0.231652 0 0.517641V2.64447C0 2.93035 0.223886 3.16211 0.499995 3.16211H14.1957C14.4718 3.16211 14.6957 2.93033 14.6957 2.64447V0.517641C14.6957 0.231652 14.4718 0 14.1957 0Z" fill="#206545"/>
<path id="Vector_4" d="M10.6862 4.54895H4.00953C2.9944 4.54895 2.16846 5.40402 2.16846 6.455C2.16846 7.50598 2.99438 8.36105 4.00953 8.36105H10.6862C11.7013 8.36105 12.5273 7.50598 12.5273 6.455C12.5273 5.40402 11.7013 4.54895 10.6862 4.54895Z" fill="#7BD6AC"/>
<path id="Vector_5" d="M10.686 4.54895H9.35791C10.373 4.54895 11.199 5.40402 11.199 6.455C11.199 7.50598 10.3731 8.36105 9.35791 8.36105H10.686C11.7012 8.36105 12.5271 7.50598 12.5271 6.455C12.5271 5.40402 11.7012 4.54895 10.686 4.54895Z" fill="#54CA94"/>
<path id="Vector_6" d="M8.81726 4.54895H5.87841C5.60228 4.54895 5.37842 4.78074 5.37842 5.06659V7.84339C5.37842 8.12926 5.6023 8.36103 5.87841 8.36103H8.81726C9.09339 8.36103 9.31726 8.12924 9.31726 7.84339V5.06659C9.31726 4.78074 9.09339 4.54895 8.81726 4.54895Z" fill="white"/>
<path id="Vector_7" d="M8.81737 4.54895H8.02051C8.29664 4.54895 8.5205 4.78074 8.5205 5.06659V7.84339C8.5205 8.12926 8.29662 8.36103 8.02051 8.36103H8.81737C9.09351 8.36103 9.31737 8.12924 9.31737 7.84339V5.06659C9.31737 4.78074 9.09351 4.54895 8.81737 4.54895Z" fill="#C6CDCA"/>
</g>
<defs>
<clipPath id="clip0_1_5528">
<rect width="16" height="11" fill="white"/>
</clipPath>
</defs>
</svg>
