<svg width="170" height="74" viewBox="0 0 170 74" fill="none" xmlns="http://www.w3.org/2000/svg">
<g id="&#225;&#132;&#139;&#225;&#133;&#177;&#225;&#132;&#140;&#225;&#133;&#179; &#225;&#132;&#133;&#225;&#133;&#169;&#225;&#132;&#128;&#225;&#133;&#169; 1" clip-path="url(#clip0_2677_4646)">
<path id="Vector" d="M10.6783 39.8906C4.79478 35.8611 1.1869 31.5918 0.721924 25.5957L23.0537 23.0893C23.0518 23.145 23.0508 23.201 23.0508 23.2571C23.0508 26.7602 26.7597 29.6 31.3347 29.6C35.9098 29.6 39.6186 26.7602 39.6186 23.2571C39.6186 19.7541 35.9098 16.9143 31.3347 16.9143C27.0772 16.9143 23.5699 19.3735 23.1035 22.538L0.721924 21.1429C0.802844 15.1367 3.9968 10.9232 9.61574 6.68283C15.2347 2.44242 22.8289 0.0426716 30.7625 0.000563595C38.696 -0.0415444 46.334 2.27735 52.0309 6.45771C57.7278 10.6381 61.0278 16.3453 61.2199 22.35C61.4121 28.3547 58.481 34.1762 53.0581 38.5605C47.6353 42.9448 40.1546 45.541 32.2277 45.7898C24.3007 46.0386 16.5619 43.92 10.6783 39.8906Z" fill="#F8F9F9"/>
<path id="Vector_2" d="M64.1102 47.2191C64.1102 46.8299 63.7877 46.5143 63.3898 46.5143H0.720339C0.322507 46.5143 0 46.8299 0 47.2191V62.0191C0 62.4083 0.322507 62.7238 0.720339 62.7238H19.4492C19.847 62.7238 20.1695 63.0394 20.1695 63.4286V73.2952C20.1695 73.6845 20.492 74 20.8898 74H42.5C42.8978 74 43.2203 73.6845 43.2203 73.2952V63.4286C43.2203 63.0394 43.5429 62.7238 43.9407 62.7238H63.3898C63.7877 62.7238 64.1102 62.4083 64.1102 62.0191V47.2191Z" fill="#F8F9F9"/>
<path id="Vector_3" d="M62.6696 2.11444C62.6696 1.72521 62.9921 1.40967 63.3899 1.40967H85.0001C85.3979 1.40967 85.7204 1.72521 85.7204 2.11443V73.2952C85.7204 73.6845 85.3979 74 85.0001 74H63.3899C62.9921 74 62.6696 73.6845 62.6696 73.2952V2.11444Z" fill="#F8F9F9"/>
<path id="Vector_4" d="M87.161 4.22869C87.161 3.83947 87.4835 3.52393 87.8814 3.52393H165.678C166.076 3.52393 166.398 3.83947 166.398 4.22869V19.0287C166.398 19.4179 166.076 19.7334 165.678 19.7334H87.8814C87.4835 19.7334 87.161 19.4179 87.161 19.0287V4.22869Z" fill="#F8F9F9"/>
<path id="Vector_5" d="M89.0056 25.5957C89.6833 23.6063 90.9146 21.8413 92.5611 20.4989L94.3644 19.0287H121.017L117.339 25.0267C116.91 25.7251 116.545 26.4585 116.246 27.2187L112.253 37.3764C111.618 38.9911 111.292 42.5093 111.292 44.2393V50.0381C111.292 50.4274 110.97 50.7429 110.572 50.7429H87.8814C87.4835 50.7429 87.161 50.4274 87.161 50.0381V34.4406C87.161 32.1681 87.5355 29.9105 88.27 27.7547L89.0056 25.5957Z" fill="#F8F9F9"/>
<path id="Vector_6" d="M109.969 40.7C109.911 39.8379 109.673 38.9989 109.356 38.1951C106.624 31.2683 109.429 25.1557 117.339 25.0267L149.812 24.8429C158.312 25.0267 167.119 29.0081 167.119 36.8846V50.0381C167.119 50.4274 166.796 50.7429 166.398 50.7429H143.347C142.95 50.7429 142.627 50.4274 142.627 50.0381V45.9857C142.627 45.4747 142.554 42.2236 142.375 41.7571C142.082 40.9916 141.769 40.3995 141.243 40.0392C140.366 39.4392 139.186 39.5889 138.125 39.6429L109.969 40.7Z" fill="#F8F9F9"/>
<path id="Vector_7" d="M85.7203 54.9715C85.7203 54.5822 86.0429 54.2667 86.4407 54.2667H169.28C169.678 54.2667 170 54.5822 170 54.9715V71.8857C170 72.2749 169.678 72.5905 169.28 72.5905H86.4407C86.0429 72.5905 85.7203 72.2749 85.7203 71.8857V54.9715Z" fill="#F8F9F9"/>
</g>
<defs>
<clipPath id="clip0_2677_4646">
<rect width="170" height="74" fill="white"/>
</clipPath>
</defs>
</svg>
